<?xml version="1.0" encoding="UTF-8" standalone="no"?>
<!-- Created with Inkscape (http://www.inkscape.org/) -->

<svg
   xmlns:dc="http://purl.org/dc/elements/1.1/"
   xmlns:cc="http://creativecommons.org/ns#"
   xmlns:rdf="http://www.w3.org/1999/02/22-rdf-syntax-ns#"
   xmlns:svg="http://www.w3.org/2000/svg"
   xmlns="http://www.w3.org/2000/svg"
   xmlns:sodipodi="http://sodipodi.sourceforge.net/DTD/sodipodi-0.dtd"
   xmlns:inkscape="http://www.inkscape.org/namespaces/inkscape"
   id="svg3412"
   height="16.378mm"
   width="128.28mm"
   version="1.1"
   viewBox="0 0 454.53602 58.032"
   inkscape:version="0.91 r13725"
   sodipodi:docname="logo_web.svg">
  <defs
     id="defs3353" />
  <sodipodi:namedview
     pagecolor="#ffffff"
     bordercolor="#666666"
     borderopacity="1"
     objecttolerance="10"
     gridtolerance="10"
     guidetolerance="10"
     inkscape:pageopacity="0"
     inkscape:pageshadow="2"
     inkscape:window-width="1920"
     inkscape:window-height="1017"
     id="namedview3351"
     showgrid="false"
     inkscape:zoom="3.2252711"
     inkscape:cx="227.26771"
     inkscape:cy="29.016142"
     inkscape:window-x="-8"
     inkscape:window-y="-8"
     inkscape:window-maximized="1"
     inkscape:current-layer="svg3412" />
  <metadata
     id="metadata3417">
    <rdf:RDF>
      <cc:Work
         rdf:about="">
        <dc:format>image/svg+xml</dc:format>
        <dc:type
           rdf:resource="http://purl.org/dc/dcmitype/StillImage" />
        <dc:title />
      </cc:Work>
    </rdf:RDF>
  </metadata>
  <g
     id="layer1"
     transform="translate(-132.73 -93.59)">
    <g
       style="fill-rule:evenodd"
       id="g3499"
       transform="translate(62.424,-110.67)">
      <g
         style="fill:#ff0017"
         id="g3341">
        <path
           inkscape:connector-curvature="0"
           d="m 177.16,204.34 -17.928,0 0,35.28 0.072,3.024 0.288,2.664 0.504,2.304 0.792,2.088 1.008,1.8 1.368,1.656 1.656,1.584 2.016,1.512 2.448,1.44 2.736,1.224 3.096,1.008 3.456,0.864 3.816,0.648 4.104,0.504 4.536,0.288 4.896,0.072 4.392,-0.072 4.104,-0.216 3.888,-0.432 3.528,-0.648 3.312,-0.72 3.024,-0.936 2.88,-1.152 2.592,-1.296 2.232,-1.44 1.008,-0.792 0.864,-0.792 0.792,-0.936 0.792,-0.936 0.648,-1.008 0.576,-1.08 0.576,-1.152 0.432,-1.152 0.648,-2.664 0.432,-2.88 0.144,-3.24 0,-34.416 -18,0 0,34.992 -0.072,2.808 -0.288,2.16 -0.504,1.8 -0.648,1.368 -0.504,0.576 -0.576,0.648 -1.368,1.008 -1.728,0.936 -2.088,0.792 -2.304,0.648 -2.592,0.432 -2.808,0.288 -3.024,0.072 -2.088,-0.072 -2.088,-0.144 -2.016,-0.288 -1.944,-0.36 -1.872,-0.504 -1.656,-0.504 -1.512,-0.648 -1.368,-0.72 -1.152,-0.792 -1.008,-0.936 -0.792,-1.008 -0.648,-1.152 -0.504,-1.296 -0.288,-1.44 -0.216,-1.728 -0.072,-1.944 0,-34.992 z"
           id="path6" />
        <path
           inkscape:connector-curvature="0"
           d="m 348.08,226.01 0,35.208 -18.648,0 0,-35.208 18.648,0 z"
           id="path8" />
        <path
           inkscape:connector-curvature="0"
           d="m 321.8,261.22 -20.808,0 -4.464,-7.344 -38.52,0 -4.608,7.632 -21.096,0 35.496,-57.24 19.584,0 34.416,56.952 z m -28.368,-17.064 -9.648,-15.48 -6.12,-10.008 -14.184,25.488 29.952,0 z"
           id="path10" />
        <path
           inkscape:connector-curvature="0"
           d="m 358.38,261.22 0,-56.88 48.24,0 5.616,0.072 4.608,0.36 2.016,0.288 1.8,0.36 1.584,0.36 1.512,0.504 2.304,1.008 2.016,1.224 1.8,1.44 1.584,1.656 1.224,1.728 0.504,0.936 0.432,1.008 0.288,0.936 0.288,1.008 0.144,1.008 0,1.008 -0.072,1.152 -0.144,1.08 -0.288,1.08 -0.432,1.008 -0.504,1.008 -0.576,1.008 -0.72,1.008 -0.792,0.864 -0.864,0.936 -0.936,0.792 -1.008,0.792 -1.08,0.72 -2.376,1.224 -1.296,0.504 -1.296,0.432 2.88,1.008 2.52,1.224 2.088,1.368 0.936,0.792 0.864,0.792 0.72,0.864 0.648,0.936 0.504,0.936 0.432,0.936 0.36,1.08 0.216,1.08 0.216,1.08 0,1.224 -0.072,1.224 -0.144,1.152 -0.216,1.224 -0.36,1.08 -0.504,1.08 -0.576,1.008 -0.648,0.936 -0.792,0.936 -0.792,0.864 -0.936,0.792 -1.08,0.72 -1.08,0.72 -1.224,0.576 -1.296,0.576 -2.808,0.864 -2.88,0.576 -3.6,0.432 -4.464,0.216 -5.328,0.072 -47.16,0 z m 18.144,-10.152 0,-13.176 25.056,0 3.168,0 2.376,0.216 1.872,0.36 1.656,0.576 0.864,0.432 0.72,0.504 0.648,0.504 0.504,0.648 0.432,0.648 0.288,0.72 0.216,0.792 0.072,0.792 -0.072,0.864 -0.216,0.792 -0.36,0.792 -0.432,0.72 -0.576,0.72 -0.648,0.648 -0.792,0.576 -0.864,0.504 -1.656,0.72 -1.8,0.432 -2.448,0.144 -3.312,0.072 -24.696,0 z m 0,-23.328 0,-13.248 25.056,0 3.168,0.072 2.304,0.144 1.872,0.36 1.656,0.576 0.792,0.432 0.72,0.504 0.648,0.576 0.504,0.576 0.432,0.648 0.36,0.72 0.144,0.792 0.072,0.792 -0.072,0.864 -0.216,0.792 -0.288,0.792 -0.504,0.72 -0.576,0.72 -0.648,0.648 -0.792,0.576 -0.864,0.576 -1.584,0.648 -1.872,0.432 -2.376,0.216 -3.24,0.072 -24.696,0 z"
           id="path12" />
        <path
           inkscape:connector-curvature="0"
           d="m 524.84,261.22 -20.952,0 -4.536,-7.704 -38.52,0.072 -4.68,7.632 -21.096,0 34.992,-56.304 20.592,0 34.2,56.304 z m -28.584,-17.352 -9.648,-15.48 -6.192,-10.008 -14.184,25.488 30.024,0 z"
           id="path14" />
        <path
           inkscape:connector-curvature="0"
           d="m 130.21,251.21 18.072,0 0,10.152 -38.16,0 -4.68,-0.072 -4.176,-0.144 -3.672,-0.288 -3.24,-0.432 -2.952,-0.648 -2.736,-0.792 -2.448,-0.936 -2.448,-1.152 -1.584,-0.864 -1.44,-1.008 -1.44,-1.08 -1.296,-1.152 -1.224,-1.224 -1.08,-1.296 -1.008,-1.368 -0.936,-1.512 -0.792,-1.512 -0.648,-1.656 -0.648,-1.656 -0.432,-1.8 -0.432,-1.8 -0.288,-1.872 -0.144,-2.016 -0.072,-2.016 0.072,-2.016 0.144,-1.944 0.288,-1.872 0.432,-1.8 0.432,-1.8 0.648,-1.656 0.648,-1.656 0.792,-1.512 0.936,-1.512 1.008,-1.368 1.08,-1.368 1.152,-1.224 1.296,-1.152 1.368,-1.08 1.512,-1.008 1.584,-0.864 2.376,-1.152 2.736,-1.008 2.952,-0.864 3.24,-0.648 3.528,-0.576 3.816,-0.36 4.104,-0.216 4.392,-0.072 37.44,0 0,10.152 -35.208,0 -2.952,0.072 -2.736,0.144 -2.52,0.36 -2.232,0.432 -2.088,0.504 -1.872,0.72 -1.656,0.864 -1.44,0.936 -1.296,1.152 -1.08,1.296 -0.864,1.368 -0.72,1.584 -0.576,1.8 -0.36,1.872 -0.288,2.088 -0.072,2.232 0.144,2.664 0.288,2.448 0.504,2.304 0.72,2.16 0.864,1.944 1.08,1.728 1.224,1.44 1.368,1.152 1.368,0.792 1.512,0.72 1.8,0.576 2.016,0.504 2.232,0.36 2.52,0.288 2.736,0.144 2.952,0.072 16.56,0 z"
           id="path16" />
      </g>
      <path
         style="fill:#ff0000;fill-opacity:1"
         inkscape:connector-curvature="0"
         d="m 148.28,226.08 0,10.224 -18.144,14.904 0,-14.904 -23.904,0 0,-10.224 42.048,0 z"
         id="path18" />
      <path
         style="fill:#ff0017"
         inkscape:connector-curvature="0"
         d="m 348.73,204.41 0,6.336 -19.44,14.904 0,-21.24 19.44,0 z"
         id="path20" />
    </g>
  </g>
</svg>
